<?xml version="1.0" encoding="UTF-8"?>
<!DOCTYPE svg PUBLIC "-//W3C//DTD SVG 1.1//EN" "http://www.w3.org/Graphics/SVG/1.1/DTD/svg11.dtd">
<svg version="1.2" xmlns="http://www.w3.org/2000/svg" xmlns:xlink="http://www.w3.org/1999/xlink" x="0" y="0" width="731" height="705" viewBox="0 0 731 705">
<style type="text/css"><![CDATA[
text { font:12px Dialog; }
]]></style>
<rect x="-1255" y="-1035" width="3402" height="3350" style="fill:rgb(255,255,255);stroke:none" />
<clipPath id="clip1"><path d="M129,15 L441,15 L441,690 L129,690 Z M331,65 C331,52.5351563 326.1015625,40.5820313 317.3789063,31.765625 C308.6601563,22.953125 296.8320313,18 284.5,18 C272.1679688,18 260.3398438,22.953125 251.6210938,31.765625 C242.8984375,40.5820313 238,52.5351563 238,65 C238,77.4648438 242.8984375,89.4179688 251.6210938,98.234375 C260.3398438,107.046875 272.1679688,112 284.5,112 C296.8320313,112 308.6601563,107.046875 317.3789063,98.234375 C326.1015625,89.4179688 331,77.4648438 331,65 Z M331,65 Z M331,65 Z M331,65" /></clipPath>
<path d="M285,126 C284.7890625,126 284.6171875,129.5859375 284.6171875,134 L284.6171875,149" style="fill:none;stroke:rgb(85,142,213)" clip-path="url(#clip1)" />
<clipPath id="clip2"><path d="M128,14 L442,14 L442,691 L128,691 L128,14 Z" /></clipPath>
<path d="M285,116 L285,126" style="fill:none;stroke:rgb(85,142,213)" clip-path="url(#clip2)" />
<clipPath id="clip3"><path d="M234,14 L336,14 L336,117 L234,117 L234,14 Z" /></clipPath>
<path d="M331,65 C331,52.5351563 326.1015625,40.5820313 317.3789063,31.765625 C308.6601563,22.953125 296.8320313,18 284.5,18 C272.1679688,18 260.3398438,22.953125 251.6210938,31.765625 C242.8984375,40.5820313 238,52.5351563 238,65 C238,77.4648438 242.8984375,89.4179688 251.6210938,98.234375 C260.3398438,107.046875 272.1679688,112 284.5,112 C296.8320313,112 308.6601563,107.046875 317.3789063,98.234375 C326.1015625,89.4179688 331,77.4648438 331,65 Z M331,65 Z M331,65" style="fill:none;stroke:rgb(32,150,243);stroke-width:5" clip-path="url(#clip3)" />
<text x="264" y="65" style="font:16px Dialog">开始</text>
<clipPath id="clip4"><path d="M129,147 L441,147 L441,690 L129,690 Z M240,149 C237.2382813,149 235,151.2382813 235,154 L235,191 C235,193.7617188 237.2382813,196 240,196 L329,196 C331.7617188,196 334,193.7617188 334,191 L334,154 C334,151.2382813 331.7617188,149 329,149 Z M240,149 Z M240,149" /></clipPath>
<path d="M284.6796875,209 L284.6914063,209 L284.6914063,220.0976563" style="fill:none;stroke:rgb(85,142,213)" clip-path="url(#clip4)" />
<clipPath id="clip5"><path d="M128,146 L442,146 L442,691 L128,691 L128,146 Z" /></clipPath>
<path d="M284.6171875,196 L284.6796875,209" style="fill:none;stroke:rgb(85,142,213)" clip-path="url(#clip5)" />
<clipPath id="clip6"><path d="M232,146 L338,146 L338,200 L232,200 L232,146 Z" /></clipPath>
<path d="M240,149 C237.2382813,149 235,151.2382813 235,154 L235,191 C235,193.7617188 237.2382813,196 240,196 L329,196 C331.7617188,196 334,193.7617188 334,191 L334,154 C334,151.2382813 331.7617188,149 329,149 Z M240,149" style="fill:none;stroke:rgb(158,158,158);stroke-width:4" clip-path="url(#clip6)" />
<text x="251" y="171" style="font:13px Dialog">接收数据</text>
<clipPath id="clip7"><path d="M279,198 L292,198 L292,211 L279,211 L279,198 Z" /></clipPath>
<path d="M289.5,204 C289.5,201.515625 287.484375,199.5 285,199.5 C282.515625,199.5 280.5,201.515625 280.5,204 C280.5,206.484375 282.515625,208.5 285,208.5 C287.484375,208.5 289.5,206.484375 289.5,204 Z M289.5,204" style="fill:rgb(250,250,250);stroke:none" clip-path="url(#clip7)" />
<clipPath id="clip8"><path d="M279,198 L292,198 L292,211 L279,211 L279,198 Z" /></clipPath>
<path d="M289.5,204 C289.5,201.515625 287.484375,199.5 285,199.5 C282.515625,199.5 280.5,201.515625 280.5,204 C280.5,206.484375 282.515625,208.5 285,208.5 C287.484375,208.5 289.5,206.484375 289.5,204 Z M289.5,204" style="fill:none;stroke:rgb(85,142,213)" clip-path="url(#clip8)" />
<clipPath id="clip9"><path d="M279,198 L292,198 L292,211 L279,211 L279,198 Z" /></clipPath>
<path d="M283,204 L287,204" style="fill:none;stroke:rgb(150,160,200)" clip-path="url(#clip9)" />
<clipPath id="clip10"><path d="M129,218 L441,218 L441,690 L129,690 Z M284.5,220 L207,258.5 L284.5,297 L362,258.5 Z M284.5,220 Z M284.5,220" /></clipPath>
<path d="M284.7539063,309.90625 C284.890625,309.90625 285,311.6953125 285,313.90625 L285,319" style="fill:none;stroke:rgb(85,142,213)" clip-path="url(#clip10)" />
<clipPath id="clip11"><path d="M128,217 L442,217 L442,691 L128,691 L128,217 Z" /></clipPath>
<path d="M284.6914063,296.90625 L284.7539063,309.90625" style="fill:none;stroke:rgb(85,142,213)" clip-path="url(#clip11)" />
<clipPath id="clip12"><path d="M204,217 L366,217 L366,301 L204,301 L204,217 Z" /></clipPath>
<path d="M284.5,220 L207,258.5 L284.5,297 L362,258.5 Z M284.5,220" style="fill:rgb(97,97,97);stroke:none" clip-path="url(#clip12)" />
<clipPath id="clip13"><path d="M204,217 L366,217 L366,301 L204,301 L204,217 Z" /></clipPath>
<path d="M284.5,220 L207,258.5 L284.5,297 L362,258.5 Z M284.5,220" style="fill:none;stroke:rgb(85,142,213);stroke-width:3" clip-path="url(#clip13)" />
<text x="236" y="257" style="font:10px Dialog">判断pid是否为空</text>
<clipPath id="clip14"><path d="M279,299 L292,299 L292,312 L279,312 L279,299 Z" /></clipPath>
<path d="M289.5,305 C289.5,302.515625 287.484375,300.5 285,300.5 C282.515625,300.5 280.5,302.515625 280.5,305 C280.5,307.484375 282.515625,309.5 285,309.5 C287.484375,309.5 289.5,307.484375 289.5,305 Z M289.5,305" style="fill:rgb(250,250,250);stroke:none" clip-path="url(#clip14)" />
<clipPath id="clip15"><path d="M279,299 L292,299 L292,312 L279,312 L279,299 Z" /></clipPath>
<path d="M289.5,305 C289.5,302.515625 287.484375,300.5 285,300.5 C282.515625,300.5 280.5,302.515625 280.5,305 C280.5,307.484375 282.515625,309.5 285,309.5 C287.484375,309.5 289.5,307.484375 289.5,305 Z M289.5,305" style="fill:none;stroke:rgb(85,142,213)" clip-path="url(#clip15)" />
<clipPath id="clip16"><path d="M279,299 L292,299 L292,312 L279,312 L279,299 Z" /></clipPath>
<path d="M283,305 L287,305" style="fill:none;stroke:rgb(150,160,200)" clip-path="url(#clip16)" />
<clipPath id="clip17"><path d="M129,319 L441,319 L441,690 L129,690 Z M297,333.5 C297,330.1835938 295.6835938,327.0039063 293.3398438,324.6601563 C290.9960938,322.3164063 287.8164063,321 284.5,321 C281.1835938,321 278.0039063,322.3164063 275.6601563,324.6601563 C273.3164063,327.0039063 272,330.1835938 272,333.5 C272,336.8164063 273.3164063,339.9960938 275.6601563,342.3398438 C278.0039063,344.6835938 281.1835938,346 284.5,346 C287.8164063,346 290.9960938,344.6835938 293.3398438,342.3398438 C295.6835938,339.9960938 297,336.8164063 297,333.5 Z M297,333.5 Z M297,333.5 Z M297,333.5" /></clipPath>
<path d="M285,362 C284.765625,362 284.5742188,363.7929688 284.5742188,366 L284.5742188,370" style="fill:none;stroke:rgb(85,142,213)" clip-path="url(#clip17)" />
<clipPath id="clip18"><path d="M128,318 L442,318 L442,691 L128,691 L128,318 Z" /></clipPath>
<path d="M285,349 L285,362" style="fill:none;stroke:rgb(85,142,213)" clip-path="url(#clip18)" />
<clipPath id="clip19"><path d="M269,318 L301,318 L301,350 L269,350 L269,318 Z" /></clipPath>
<path d="M297,333.5 C297,330.1835938 295.6835938,327.0039063 293.3398438,324.6601563 C290.9960938,322.3164063 287.8164063,321 284.5,321 C281.1835938,321 278.0039063,322.3164063 275.6601563,324.6601563 C273.3164063,327.0039063 272,330.1835938 272,333.5 C272,336.8164063 273.3164063,339.9960938 275.6601563,342.3398438 C278.0039063,344.6835938 281.1835938,346 284.5,346 C287.8164063,346 290.9960938,344.6835938 293.3398438,342.3398438 C295.6835938,339.9960938 297,336.8164063 297,333.5 Z M297,333.5 Z M297,333.5" style="fill:rgb(67,160,71);stroke:none" clip-path="url(#clip19)" />
<clipPath id="clip20"><path d="M269,318 L301,318 L301,350 L269,350 L269,318 Z" /></clipPath>
<path d="M297,333.5 C297,330.1835938 295.6835938,327.0039063 293.3398438,324.6601563 C290.9960938,322.3164063 287.8164063,321 284.5,321 C281.1835938,321 278.0039063,322.3164063 275.6601563,324.6601563 C273.3164063,327.0039063 272,330.1835938 272,333.5 C272,336.8164063 273.3164063,339.9960938 275.6601563,342.3398438 C278.0039063,344.6835938 281.1835938,346 284.5,346 C287.8164063,346 290.9960938,344.6835938 293.3398438,342.3398438 C295.6835938,339.9960938 297,336.8164063 297,333.5 Z M297,333.5 Z M297,333.5" style="fill:none;stroke:rgb(85,142,213);stroke-width:3" clip-path="url(#clip20)" />
<text x="282" y="333" style="font:8px Dialog">Y</text>
<clipPath id="clip21"><path d="M279,348 L292,348 L292,361 L279,361 L279,348 Z" /></clipPath>
<path d="M289.5,354 C289.5,351.515625 287.484375,349.5 285,349.5 C282.515625,349.5 280.5,351.515625 280.5,354 C280.5,356.484375 282.515625,358.5 285,358.5 C287.484375,358.5 289.5,356.484375 289.5,354 Z M289.5,354" style="fill:rgb(250,250,250);stroke:none" clip-path="url(#clip21)" />
<clipPath id="clip22"><path d="M279,348 L292,348 L292,361 L279,361 L279,348 Z" /></clipPath>
<path d="M289.5,354 C289.5,351.515625 287.484375,349.5 285,349.5 C282.515625,349.5 280.5,351.515625 280.5,354 C280.5,356.484375 282.515625,358.5 285,358.5 C287.484375,358.5 289.5,356.484375 289.5,354 Z M289.5,354" style="fill:none;stroke:rgb(85,142,213)" clip-path="url(#clip22)" />
<clipPath id="clip23"><path d="M279,348 L292,348 L292,361 L279,361 L279,348 Z" /></clipPath>
<path d="M283,354 L287,354" style="fill:none;stroke:rgb(150,160,200)" clip-path="url(#clip23)" />
<clipPath id="clip24"><path d="M129,368 L441,368 L441,690 L129,690 Z M221,370 L221,399 L348,399 L348,370 Z M221,370 Z M221,370" /></clipPath>
<path d="M284.6367188,412 C284.6054688,412 284.5820313,413.7929688 284.5820313,416 L284.5820313,423" style="fill:none;stroke:rgb(85,142,213)" clip-path="url(#clip24)" />
<clipPath id="clip25"><path d="M128,367 L442,367 L442,691 L128,691 L128,367 Z" /></clipPath>
<path d="M284.5703125,399 L284.6367188,412" style="fill:none;stroke:rgb(85,142,213)" clip-path="url(#clip25)" />
<clipPath id="clip26"><path d="M218,367 L352,367 L352,403 L218,403 L218,367 Z" /></clipPath>
<path d="M221,370 L221,399 L348,399 L348,370 Z M221,370" style="fill:rgb(79,129,189);stroke:none" clip-path="url(#clip26)" />
<clipPath id="clip27"><path d="M218,367 L352,367 L352,403 L218,403 L218,367 Z" /></clipPath>
<path d="M221,370 L221,399 L348,399 L348,370 Z M221,370" style="fill:none;stroke:rgb(79,129,189);stroke-width:3" clip-path="url(#clip27)" />
<text x="233" y="385" style="font:10px Open Sans">渲染第一梯队元素</text>
<clipPath id="clip28"><path d="M279,401 L292,401 L292,414 L279,414 L279,401 Z" /></clipPath>
<path d="M289.5,407 C289.5,404.515625 287.484375,402.5 285,402.5 C282.515625,402.5 280.5,404.515625 280.5,407 C280.5,409.484375 282.515625,411.5 285,411.5 C287.484375,411.5 289.5,409.484375 289.5,407 Z M289.5,407" style="fill:rgb(250,250,250);stroke:none" clip-path="url(#clip28)" />
<clipPath id="clip29"><path d="M279,401 L292,401 L292,414 L279,414 L279,401 Z" /></clipPath>
<path d="M289.5,407 C289.5,404.515625 287.484375,402.5 285,402.5 C282.515625,402.5 280.5,404.515625 280.5,407 C280.5,409.484375 282.515625,411.5 285,411.5 C287.484375,411.5 289.5,409.484375 289.5,407 Z M289.5,407" style="fill:none;stroke:rgb(85,142,213)" clip-path="url(#clip29)" />
<clipPath id="clip30"><path d="M279,401 L292,401 L292,414 L279,414 L279,401 Z" /></clipPath>
<path d="M283,407 L287,407" style="fill:none;stroke:rgb(150,160,200)" clip-path="url(#clip30)" />
<clipPath id="clip31"><path d="M129,421 L441,421 L441,690 L129,690 Z M131,423 L131,456 L438,456 L438,423 Z M131,423 Z M131,423" /></clipPath>
<path d="M284.6484375,469 C284.8398438,469 285,470.7929688 285,473 L285,480" style="fill:none;stroke:rgb(142,180,227)" clip-path="url(#clip31)" />
<clipPath id="clip32"><path d="M128,420 L442,420 L442,691 L128,691 L128,420 Z" /></clipPath>
<path d="M284.5820313,456 L284.6484375,469" style="fill:none;stroke:rgb(85,142,213)" clip-path="url(#clip32)" />
<clipPath id="clip33"><path d="M128,420 L442,420 L442,460 L128,460 L128,420 Z" /></clipPath>
<path d="M131,423 L131,456 L438,456 L438,423 Z M131,423" style="fill:rgb(79,129,189);stroke:none" clip-path="url(#clip33)" />
<clipPath id="clip34"><path d="M128,420 L442,420 L442,460 L128,460 L128,420 Z" /></clipPath>
<path d="M131,423 L131,456 L438,456 L438,423 Z M131,423" style="fill:none;stroke:rgb(85,142,213);stroke-width:3" clip-path="url(#clip34)" />
<text x="144" y="440" style="font:12px Open Sans">根据上级梯队的ID查询下一级梯队的pid</text>
<clipPath id="clip35"><path d="M279,458 L292,458 L292,471 L279,471 L279,458 Z" /></clipPath>
<path d="M289.5,464 C289.5,461.515625 287.484375,459.5 285,459.5 C282.515625,459.5 280.5,461.515625 280.5,464 C280.5,466.484375 282.515625,468.5 285,468.5 C287.484375,468.5 289.5,466.484375 289.5,464 Z M289.5,464" style="fill:rgb(250,250,250);stroke:none" clip-path="url(#clip35)" />
<clipPath id="clip36"><path d="M279,458 L292,458 L292,471 L279,471 L279,458 Z" /></clipPath>
<path d="M289.5,464 C289.5,461.515625 287.484375,459.5 285,459.5 C282.515625,459.5 280.5,461.515625 280.5,464 C280.5,466.484375 282.515625,468.5 285,468.5 C287.484375,468.5 289.5,466.484375 289.5,464 Z M289.5,464" style="fill:none;stroke:rgb(85,142,213)" clip-path="url(#clip36)" />
<clipPath id="clip37"><path d="M279,458 L292,458 L292,471 L279,471 L279,458 Z" /></clipPath>
<path d="M283,464 L287,464" style="fill:none;stroke:rgb(150,160,200)" clip-path="url(#clip37)" />
<clipPath id="clip38"><path d="M163,478 L408,478 L408,690 L163,690 Z M285,480 L165,525.5 L285,571 L405,525.5 Z M285,480 Z M285,480" /></clipPath>
<path d="M285,584 C285,584 285,585.7929688 285,588 L285,593" style="fill:none;stroke:rgb(142,180,227)" clip-path="url(#clip38)" />
<clipPath id="clip39"><path d="M162,477 L409,477 L409,691 L162,691 L162,477 Z" /></clipPath>
<path d="M285,571 L285,584" style="fill:none;stroke:rgb(142,180,227)" clip-path="url(#clip39)" />
<clipPath id="clip40"><path d="M162,477 L409,477 L409,575 L162,575 L162,477 Z" /></clipPath>
<path d="M285,480 L165,525.5 L285,571 L405,525.5 Z M285,480" style="fill:rgb(89,89,89);stroke:none" clip-path="url(#clip40)" />
<clipPath id="clip41"><path d="M162,477 L409,477 L409,575 L162,575 L162,477 Z" /></clipPath>
<path d="M285,480 L165,525.5 L285,571 L405,525.5 Z M285,480" style="fill:none;stroke:rgb(85,142,213);stroke-width:3" clip-path="url(#clip41)" />
<text x="201" y="526" style="font:10px Open Sans">判断上级ID在下一级是否存在</text>
<clipPath id="clip42"><path d="M279,573 L292,573 L292,586 L279,586 L279,573 Z" /></clipPath>
<path d="M289.5,579 C289.5,576.515625 287.484375,574.5 285,574.5 C282.515625,574.5 280.5,576.515625 280.5,579 C280.5,581.484375 282.515625,583.5 285,583.5 C287.484375,583.5 289.5,581.484375 289.5,579 Z M289.5,579" style="fill:rgb(250,250,250);stroke:none" clip-path="url(#clip42)" />
<clipPath id="clip43"><path d="M279,573 L292,573 L292,586 L279,586 L279,573 Z" /></clipPath>
<path d="M289.5,579 C289.5,576.515625 287.484375,574.5 285,574.5 C282.515625,574.5 280.5,576.515625 280.5,579 C280.5,581.484375 282.515625,583.5 285,583.5 C287.484375,583.5 289.5,581.484375 289.5,579 Z M289.5,579" style="fill:none;stroke:rgb(142,180,227)" clip-path="url(#clip43)" />
<clipPath id="clip44"><path d="M279,573 L292,573 L292,586 L279,586 L279,573 Z" /></clipPath>
<path d="M283,579 L287,579" style="fill:none;stroke:rgb(150,160,200)" clip-path="url(#clip44)" />
<clipPath id="clip45"><path d="M261,593 L309,593 L309,690 L261,690 Z M297,607.5 C297,604.1835938 295.6835938,601.0039063 293.3398438,598.6601563 C290.9960938,596.3164063 287.8164063,595 284.5,595 C281.1835938,595 278.0039063,596.3164063 275.6601563,598.6601563 C273.3164063,601.0039063 272,604.1835938 272,607.5 C272,610.8164063 273.3164063,613.9960938 275.6601563,616.3398438 C278.0039063,618.6835938 281.1835938,620 284.5,620 C287.8164063,620 290.9960938,618.6835938 293.3398438,616.3398438 C295.6835938,613.9960938 297,610.8164063 297,607.5 Z M297,607.5 Z M297,607.5 Z M297,607.5" /></clipPath>
<path d="M285,636 C285,636 285,637.7929688 285,640 L285,642" style="fill:none;stroke:rgb(142,180,227)" clip-path="url(#clip45)" />
<clipPath id="clip46"><path d="M260,592 L310,592 L310,691 L260,691 L260,592 Z" /></clipPath>
<path d="M285,623 L285,636" style="fill:none;stroke:rgb(142,180,227)" clip-path="url(#clip46)" />
<clipPath id="clip47"><path d="M269,592 L301,592 L301,624 L269,624 L269,592 Z" /></clipPath>
<path d="M297,607.5 C297,604.1835938 295.6835938,601.0039063 293.3398438,598.6601563 C290.9960938,596.3164063 287.8164063,595 284.5,595 C281.1835938,595 278.0039063,596.3164063 275.6601563,598.6601563 C273.3164063,601.0039063 272,604.1835938 272,607.5 C272,610.8164063 273.3164063,613.9960938 275.6601563,616.3398438 C278.0039063,618.6835938 281.1835938,620 284.5,620 C287.8164063,620 290.9960938,618.6835938 293.3398438,616.3398438 C295.6835938,613.9960938 297,610.8164063 297,607.5 Z M297,607.5 Z M297,607.5" style="fill:rgb(255,3,3);stroke:none" clip-path="url(#clip47)" />
<clipPath id="clip48"><path d="M269,592 L301,592 L301,624 L269,624 L269,592 Z" /></clipPath>
<path d="M297,607.5 C297,604.1835938 295.6835938,601.0039063 293.3398438,598.6601563 C290.9960938,596.3164063 287.8164063,595 284.5,595 C281.1835938,595 278.0039063,596.3164063 275.6601563,598.6601563 C273.3164063,601.0039063 272,604.1835938 272,607.5 C272,610.8164063 273.3164063,613.9960938 275.6601563,616.3398438 C278.0039063,618.6835938 281.1835938,620 284.5,620 C287.8164063,620 290.9960938,618.6835938 293.3398438,616.3398438 C295.6835938,613.9960938 297,610.8164063 297,607.5 Z M297,607.5 Z M297,607.5" style="fill:none;stroke:rgb(85,142,213);stroke-width:3" clip-path="url(#clip48)" />
<text x="281" y="607" style="font:8px Dialog">N</text>
<clipPath id="clip49"><path d="M279,622 L292,622 L292,635 L279,635 L279,622 Z" /></clipPath>
<path d="M289.5,628 C289.5,625.515625 287.484375,623.5 285,623.5 C282.515625,623.5 280.5,625.515625 280.5,628 C280.5,630.484375 282.515625,632.5 285,632.5 C287.484375,632.5 289.5,630.484375 289.5,628 Z M289.5,628" style="fill:rgb(250,250,250);stroke:none" clip-path="url(#clip49)" />
<clipPath id="clip50"><path d="M279,622 L292,622 L292,635 L279,635 L279,622 Z" /></clipPath>
<path d="M289.5,628 C289.5,625.515625 287.484375,623.5 285,623.5 C282.515625,623.5 280.5,625.515625 280.5,628 C280.5,630.484375 282.515625,632.5 285,632.5 C287.484375,632.5 289.5,630.484375 289.5,628 Z M289.5,628" style="fill:none;stroke:rgb(142,180,227)" clip-path="url(#clip50)" />
<clipPath id="clip51"><path d="M279,622 L292,622 L292,635 L279,635 L279,622 Z" /></clipPath>
<path d="M283,628 L287,628" style="fill:none;stroke:rgb(150,160,200)" clip-path="url(#clip51)" />
<clipPath id="clip52"><path d="M260,641 L310,641 L310,691 L260,691 L260,641 Z" /></clipPath>
<path d="M306,665.5 C306,659.796875 303.734375,654.328125 299.703125,650.296875 C295.671875,646.265625 290.203125,644 284.5,644 C278.796875,644 273.328125,646.265625 269.296875,650.296875 C265.265625,654.328125 263,659.796875 263,665.5 C263,671.203125 265.265625,676.671875 269.296875,680.703125 C273.328125,684.734375 278.796875,687 284.5,687 C290.203125,687 295.671875,684.734375 299.703125,680.703125 C303.734375,676.671875 306,671.203125 306,665.5 Z M306,665.5 Z M306,665.5" style="fill:rgb(0,150,136);stroke:none" clip-path="url(#clip52)" />
<clipPath id="clip53"><path d="M260,641 L310,641 L310,691 L260,691 L260,641 Z" /></clipPath>
<path d="M306,665.5 C306,659.796875 303.734375,654.328125 299.703125,650.296875 C295.671875,646.265625 290.203125,644 284.5,644 C278.796875,644 273.328125,646.265625 269.296875,650.296875 C265.265625,654.328125 263,659.796875 263,665.5 C263,671.203125 265.265625,676.671875 269.296875,680.703125 C273.328125,684.734375 278.796875,687 284.5,687 C290.203125,687 295.671875,684.734375 299.703125,680.703125 C303.734375,676.671875 306,671.203125 306,665.5 Z M306,665.5 Z M306,665.5" style="fill:none;stroke:rgb(0,150,136);stroke-width:3" clip-path="url(#clip53)" />
<text x="272" y="664" style="font:10px Dialog">结束</text>
<clipPath id="clip54"><path d="M14,237 L54,237 L54,277 L14,277 L14,237 Z" /></clipPath>
<path d="M52,256.5 C52,251.59375 50.0507813,246.8867188 46.5820313,243.4179688 C43.1132813,239.9492188 38.40625,238 33.5,238 C28.59375,238 23.8867188,239.9492188 20.4179688,243.4179688 C16.9492188,246.8867188 15,251.59375 15,256.5 C15,261.40625 16.9492188,266.1132813 20.4179688,269.5820313 C23.8867188,273.0507813 28.59375,275 33.5,275 C38.40625,275 43.1132813,273.0507813 46.5820313,269.5820313 C50.0507813,266.1132813 52,261.40625 52,256.5 Z M52,256.5 Z M52,256.5" style="fill:rgb(255,3,3);stroke:none" clip-path="url(#clip54)" />
<text x="30" y="256" style="font:8px Dialog">N</text>
<clipPath id="clip55"><path d="M642,504 L682,504 L682,544 L642,544 L642,504 Z" /></clipPath>
<path d="M680,523.5 C680,518.59375 678.0507813,513.8867188 674.5820313,510.4179688 C671.1132813,506.9492188 666.40625,505 661.5,505 C656.59375,505 651.8867188,506.9492188 648.4179688,510.4179688 C644.9492188,513.8867188 643,518.59375 643,523.5 C643,528.40625 644.9492188,533.1132813 648.4179688,536.5820313 C651.8867188,540.0507813 656.59375,542 661.5,542 C666.40625,542 671.1132813,540.0507813 674.5820313,536.5820313 C678.0507813,533.1132813 680,528.40625 680,523.5 Z M680,523.5 Z M680,523.5" style="fill:rgb(67,160,71);stroke:none" clip-path="url(#clip55)" />
<text x="658" y="523" style="font:8px Dialog">Y</text>
<clipPath id="clip56"><path d="M602,416 L717,416 L717,462 L602,462 L602,416 Z" /></clipPath>
<path d="M611,417 C606.5820313,417 603,420.5820313 603,425 L603,452 C603,456.4179688 606.5820313,460 611,460 L707,460 C711.4179688,460 715,456.4179688 715,452 L715,425 C715,420.5820313 711.4179688,417 707,417 Z M611,417" style="fill:rgb(85,142,213);stroke:none" clip-path="url(#clip56)" />
<text x="616" y="439" style="font:13px Open Sans">渲染子菜单</text>
<clipPath id="clip57"><path d="M49,248 L211,248 L211,267 L49,267 L49,248 Z" /></clipPath>
<path d="M207.921875,258.0429688 L53,257.1523438" style="fill:none;stroke:rgb(119,147,60);stroke-width:3" clip-path="url(#clip57)" />
<clipPath id="clip58"><path d="M49,248 L211,248 L211,267 L49,267 L49,248 Z" /></clipPath>
<path d="M61.6875,252.203125 L53,257.1523438 L61.6289063,262.1992188 Z M61.6875,252.203125" style="fill:rgb(119,147,60);stroke:none" clip-path="url(#clip58)" />
<clipPath id="clip59"><path d="M49,248 L211,248 L211,267 L49,267 L49,248 Z" /></clipPath>
<path d="M61.6875,252.203125 L53,257.1523438 L61.6289063,262.1992188 Z M61.6875,252.203125" style="fill:none;stroke:rgb(119,147,60);stroke-width:3" clip-path="url(#clip59)" />
<clipPath id="clip60"><path d="M399,515 L647,515 L647,534 L399,534 L399,515 Z" /></clipPath>
<path d="M403.7539063,525.0273438 L643,524.1015625" style="fill:none;stroke:rgb(119,147,60);stroke-width:3" clip-path="url(#clip60)" />
<clipPath id="clip61"><path d="M399,515 L647,515 L647,534 L399,534 L399,515 Z" /></clipPath>
<path d="M634.359375,529.1328125 L643,524.1015625 L634.3203125,519.1328125 Z M634.359375,529.1328125" style="fill:rgb(119,147,60);stroke:none" clip-path="url(#clip61)" />
<clipPath id="clip62"><path d="M399,515 L647,515 L647,534 L399,534 L399,515 Z" /></clipPath>
<path d="M634.359375,529.1328125 L643,524.1015625 L634.3203125,519.1328125 Z M634.359375,529.1328125" style="fill:none;stroke:rgb(119,147,60);stroke-width:3" clip-path="url(#clip62)" />
<clipPath id="clip63"><path d="M18,272 L265,272 L265,675 L18,675 L18,272 Z" /></clipPath>
<path d="M33.953125,276 L33.953125,666 L261,666" style="fill:none;stroke:rgb(119,147,60);stroke-width:3" clip-path="url(#clip63)" />
<clipPath id="clip64"><path d="M18,272 L265,272 L265,675 L18,675 L18,272 Z" /></clipPath>
<path d="M252.3398438,671 L261,666 L252.3398438,661 Z M252.3398438,671" style="fill:rgb(119,147,60);stroke:none" clip-path="url(#clip64)" />
<clipPath id="clip65"><path d="M18,272 L265,272 L265,675 L18,675 L18,272 Z" /></clipPath>
<path d="M252.3398438,671 L261,666 L252.3398438,661 Z M252.3398438,671" style="fill:none;stroke:rgb(119,147,60);stroke-width:3" clip-path="url(#clip65)" />
<clipPath id="clip66"><path d="M644,456 L676,456 L676,509 L644,509 L644,456 Z" /></clipPath>
<path d="M661.328125,505.0117188 L659.7539063,460" style="fill:none;stroke:rgb(119,147,60);stroke-width:3" clip-path="url(#clip66)" />
<clipPath id="clip67"><path d="M644,456 L676,456 L676,509 L644,509 L644,456 Z" /></clipPath>
<path d="M665.0546875,468.4804688 L659.7539063,460 L655.0585938,468.828125 Z M665.0546875,468.4804688" style="fill:rgb(119,147,60);stroke:none" clip-path="url(#clip67)" />
<clipPath id="clip68"><path d="M644,456 L676,456 L676,509 L644,509 L644,456 Z" /></clipPath>
<path d="M665.0546875,468.4804688 L659.7539063,460 L655.0585938,468.828125 Z M665.0546875,468.4804688" style="fill:none;stroke:rgb(119,147,60);stroke-width:3" clip-path="url(#clip68)" />
<clipPath id="clip69"><path d="M434,429 L607,429 L607,448 L434,448 L434,429 Z" /></clipPath>
<path d="M603,438.7265625 L438,439.296875" style="fill:none;stroke:rgb(119,147,60);stroke-width:3" clip-path="url(#clip69)" />
<clipPath id="clip70"><path d="M434,429 L607,429 L607,448 L434,448 L434,429 Z" /></clipPath>
<path d="M446.6445313,434.265625 L438,439.296875 L446.6757813,444.265625 Z M446.6445313,434.265625" style="fill:rgb(119,147,60);stroke:none" clip-path="url(#clip70)" />
<clipPath id="clip71"><path d="M434,429 L607,429 L607,448 L434,448 L434,429 Z" /></clipPath>
<path d="M446.6445313,434.265625 L438,439.296875 L446.6757813,444.265625 Z M446.6445313,434.265625" style="fill:none;stroke:rgb(119,147,60);stroke-width:3" clip-path="url(#clip71)" />
</svg>
